<mxfile host="app.diagrams.net" agent="Mozilla/5.0 (X11; Ubuntu; Linux x86_64; rv:133.0) Gecko/20100101 Firefox/133.0" version="26.0.4">
  <diagram name="Page-1" id="UY-ePDJ8zn8wCsXpelpY">
    <mxGraphModel dx="2708" dy="634" grid="1" gridSize="10" guides="1" tooltips="1" connect="1" arrows="1" fold="1" page="1" pageScale="1" pageWidth="827" pageHeight="1169" math="0" shadow="0">
      <root>
        <mxCell id="0" />
        <mxCell id="1" parent="0" />
        <mxCell id="qQRVSBOoOYFu80DwUX75-83" value="" style="rounded=1;whiteSpace=wrap;html=1;arcSize=7;" parent="1" vertex="1">
          <mxGeometry x="-1630" y="570" width="791" height="270" as="geometry" />
        </mxCell>
        <mxCell id="qQRVSBOoOYFu80DwUX75-79" value="" style="rounded=1;whiteSpace=wrap;html=1;fillColor=#e1d5e7;strokeColor=#9673a6;arcSize=6;" parent="1" vertex="1">
          <mxGeometry x="-1229" y="580" width="380" height="220" as="geometry" />
        </mxCell>
        <mxCell id="qQRVSBOoOYFu80DwUX75-77" value="" style="rounded=1;whiteSpace=wrap;html=1;fillColor=#d5e8d4;strokeColor=#82b366;arcSize=7;" parent="1" vertex="1">
          <mxGeometry x="-1616" y="580" width="377" height="220" as="geometry" />
        </mxCell>
        <mxCell id="qQRVSBOoOYFu80DwUX75-76" value="" style="rounded=1;whiteSpace=wrap;html=1;fillColor=#DEF2DD;strokeColor=#82b366;arcSize=8;" parent="1" vertex="1">
          <mxGeometry x="-1456" y="595" width="207" height="195" as="geometry" />
        </mxCell>
        <mxCell id="qQRVSBOoOYFu80DwUX75-2" value="" style="edgeStyle=none;rounded=0;orthogonalLoop=1;jettySize=auto;html=1;" parent="1" source="qQRVSBOoOYFu80DwUX75-6" edge="1">
          <mxGeometry relative="1" as="geometry">
            <mxPoint x="-1496" y="628" as="targetPoint" />
          </mxGeometry>
        </mxCell>
        <mxCell id="qQRVSBOoOYFu80DwUX75-3" style="edgeStyle=none;rounded=0;orthogonalLoop=1;jettySize=auto;html=1;entryX=0;entryY=0.5;entryDx=0;entryDy=0;" parent="1" target="qQRVSBOoOYFu80DwUX75-6" edge="1">
          <mxGeometry relative="1" as="geometry">
            <mxPoint x="-1579" y="628" as="sourcePoint" />
          </mxGeometry>
        </mxCell>
        <mxCell id="qQRVSBOoOYFu80DwUX75-4" value="Input V" style="edgeLabel;html=1;align=center;verticalAlign=middle;resizable=0;points=[];labelBackgroundColor=none;" parent="qQRVSBOoOYFu80DwUX75-3" connectable="0" vertex="1">
          <mxGeometry x="-0.3444" relative="1" as="geometry">
            <mxPoint x="-9" y="-8" as="offset" />
          </mxGeometry>
        </mxCell>
        <mxCell id="qQRVSBOoOYFu80DwUX75-6" value="" style="shape=sumEllipse;perimeter=ellipsePerimeter;whiteSpace=wrap;html=1;backgroundOutline=1;" parent="1" vertex="1">
          <mxGeometry x="-1546" y="618" width="20" height="20" as="geometry" />
        </mxCell>
        <mxCell id="qQRVSBOoOYFu80DwUX75-15" style="edgeStyle=orthogonalEdgeStyle;rounded=0;orthogonalLoop=1;jettySize=auto;html=1;exitX=1;exitY=0.5;exitDx=0;exitDy=0;entryX=0;entryY=0.5;entryDx=0;entryDy=0;" parent="1" source="qQRVSBOoOYFu80DwUX75-10" target="qQRVSBOoOYFu80DwUX75-12" edge="1">
          <mxGeometry relative="1" as="geometry" />
        </mxCell>
        <mxCell id="qQRVSBOoOYFu80DwUX75-86" value="Vq" style="edgeLabel;html=1;align=center;verticalAlign=middle;resizable=0;points=[];labelBackgroundColor=none;" parent="qQRVSBOoOYFu80DwUX75-15" vertex="1" connectable="0">
          <mxGeometry x="-0.3571" relative="1" as="geometry">
            <mxPoint x="-1" y="-10" as="offset" />
          </mxGeometry>
        </mxCell>
        <mxCell id="qQRVSBOoOYFu80DwUX75-44" style="edgeStyle=orthogonalEdgeStyle;rounded=0;orthogonalLoop=1;jettySize=auto;html=1;entryX=0;entryY=0.25;entryDx=0;entryDy=0;startArrow=oval;startFill=1;" parent="1" target="qQRVSBOoOYFu80DwUX75-10" edge="1">
          <mxGeometry relative="1" as="geometry">
            <mxPoint x="-1256" y="684" as="sourcePoint" />
            <Array as="points">
              <mxPoint x="-1256" y="684" />
            </Array>
          </mxGeometry>
        </mxCell>
        <mxCell id="qQRVSBOoOYFu80DwUX75-87" value="Vα" style="edgeLabel;html=1;align=center;verticalAlign=middle;resizable=0;points=[];labelBackgroundColor=none;" parent="qQRVSBOoOYFu80DwUX75-44" vertex="1" connectable="0">
          <mxGeometry x="0.1051" y="-2" relative="1" as="geometry">
            <mxPoint x="8" y="-16" as="offset" />
          </mxGeometry>
        </mxCell>
        <mxCell id="qQRVSBOoOYFu80DwUX75-10" value="αβ to DQ" style="whiteSpace=wrap;html=1;" parent="1" vertex="1">
          <mxGeometry x="-1203" y="670" width="60" height="56" as="geometry" />
        </mxCell>
        <mxCell id="qQRVSBOoOYFu80DwUX75-12" value="&lt;font style=&quot;font-size: 20px;&quot;&gt;PI&lt;/font&gt;" style="whiteSpace=wrap;html=1;" parent="1" vertex="1">
          <mxGeometry x="-1103" y="670" width="60" height="56" as="geometry" />
        </mxCell>
        <mxCell id="qQRVSBOoOYFu80DwUX75-17" style="edgeStyle=orthogonalEdgeStyle;rounded=0;orthogonalLoop=1;jettySize=auto;html=1;exitX=1;exitY=0.5;exitDx=0;exitDy=0;entryX=-0.073;entryY=0.533;entryDx=0;entryDy=0;entryPerimeter=0;" parent="1" source="qQRVSBOoOYFu80DwUX75-16" target="qQRVSBOoOYFu80DwUX75-29" edge="1">
          <mxGeometry relative="1" as="geometry">
            <mxPoint x="-1426" y="628" as="targetPoint" />
          </mxGeometry>
        </mxCell>
        <mxCell id="qQRVSBOoOYFu80DwUX75-16" value="&amp;nbsp;Kr" style="triangle;whiteSpace=wrap;html=1;align=left;labelPosition=center;verticalLabelPosition=middle;verticalAlign=middle;" parent="1" vertex="1">
          <mxGeometry x="-1496" y="603.75" width="36.38" height="48.5" as="geometry" />
        </mxCell>
        <mxCell id="qQRVSBOoOYFu80DwUX75-36" value="" style="edgeStyle=orthogonalEdgeStyle;rounded=0;orthogonalLoop=1;jettySize=auto;html=1;" parent="1" source="qQRVSBOoOYFu80DwUX75-20" target="qQRVSBOoOYFu80DwUX75-24" edge="1">
          <mxGeometry relative="1" as="geometry" />
        </mxCell>
        <mxCell id="qQRVSBOoOYFu80DwUX75-20" value="&lt;font style=&quot;font-size: 16px;&quot;&gt;×&lt;/font&gt;" style="whiteSpace=wrap;html=1;" parent="1" vertex="1">
          <mxGeometry x="-1376" y="613" width="30" height="30" as="geometry" />
        </mxCell>
        <mxCell id="qQRVSBOoOYFu80DwUX75-31" style="edgeStyle=orthogonalEdgeStyle;rounded=0;orthogonalLoop=1;jettySize=auto;html=1;exitX=0.5;exitY=0;exitDx=0;exitDy=0;entryX=0.5;entryY=1;entryDx=0;entryDy=0;startArrow=none;startFill=0;" parent="1" source="qQRVSBOoOYFu80DwUX75-51" target="qQRVSBOoOYFu80DwUX75-20" edge="1">
          <mxGeometry relative="1" as="geometry" />
        </mxCell>
        <mxCell id="qQRVSBOoOYFu80DwUX75-37" value="" style="edgeStyle=orthogonalEdgeStyle;rounded=0;orthogonalLoop=1;jettySize=auto;html=1;" parent="1" source="qQRVSBOoOYFu80DwUX75-21" target="qQRVSBOoOYFu80DwUX75-35" edge="1">
          <mxGeometry relative="1" as="geometry" />
        </mxCell>
        <mxCell id="qQRVSBOoOYFu80DwUX75-21" value="&lt;font style=&quot;font-size: 16px;&quot;&gt;×&lt;/font&gt;" style="whiteSpace=wrap;html=1;" parent="1" vertex="1">
          <mxGeometry x="-1376" y="709" width="30" height="30" as="geometry" />
        </mxCell>
        <mxCell id="qQRVSBOoOYFu80DwUX75-23" value="" style="edgeStyle=orthogonalEdgeStyle;rounded=0;orthogonalLoop=1;jettySize=auto;html=1;exitX=1;exitY=0.5;exitDx=0;exitDy=0;" parent="1" source="qQRVSBOoOYFu80DwUX75-12" target="qQRVSBOoOYFu80DwUX75-11" edge="1">
          <mxGeometry relative="1" as="geometry">
            <mxPoint x="-983" y="698.1470588235295" as="targetPoint" />
            <mxPoint x="-1053" y="698.5" as="sourcePoint" />
            <Array as="points">
              <mxPoint x="-1013" y="698.5" />
            </Array>
          </mxGeometry>
        </mxCell>
        <mxCell id="qQRVSBOoOYFu80DwUX75-27" style="edgeStyle=orthogonalEdgeStyle;rounded=0;orthogonalLoop=1;jettySize=auto;html=1;exitX=1;exitY=0.5;exitDx=0;exitDy=0;entryX=0;entryY=0.5;entryDx=0;entryDy=0;" parent="1" source="qQRVSBOoOYFu80DwUX75-47" target="qQRVSBOoOYFu80DwUX75-25" edge="1">
          <mxGeometry relative="1" as="geometry" />
        </mxCell>
        <mxCell id="qQRVSBOoOYFu80DwUX75-33" style="edgeStyle=orthogonalEdgeStyle;rounded=0;orthogonalLoop=1;jettySize=auto;html=1;exitX=0.5;exitY=1;exitDx=0;exitDy=0;entryX=0.5;entryY=1;entryDx=0;entryDy=0;" parent="1" target="qQRVSBOoOYFu80DwUX75-11" edge="1">
          <mxGeometry relative="1" as="geometry">
            <mxPoint x="-1003.0833333333333" y="747" as="sourcePoint" />
          </mxGeometry>
        </mxCell>
        <mxCell id="qQRVSBOoOYFu80DwUX75-34" value="ωn" style="edgeLabel;html=1;align=center;verticalAlign=middle;resizable=0;points=[];labelBackgroundColor=none;fontSize=12;" parent="qQRVSBOoOYFu80DwUX75-33" vertex="1" connectable="0">
          <mxGeometry x="-0.9029" relative="1" as="geometry">
            <mxPoint y="15" as="offset" />
          </mxGeometry>
        </mxCell>
        <mxCell id="qQRVSBOoOYFu80DwUX75-11" value="" style="shape=sumEllipse;perimeter=ellipsePerimeter;whiteSpace=wrap;html=1;backgroundOutline=1;" parent="1" vertex="1">
          <mxGeometry x="-1013" y="687.5" width="20" height="20" as="geometry" />
        </mxCell>
        <mxCell id="qQRVSBOoOYFu80DwUX75-39" style="edgeStyle=orthogonalEdgeStyle;rounded=0;orthogonalLoop=1;jettySize=auto;html=1;exitX=1;exitY=0.5;exitDx=0;exitDy=0;endArrow=oval;endFill=1;" parent="1" source="qQRVSBOoOYFu80DwUX75-24" edge="1">
          <mxGeometry relative="1" as="geometry">
            <mxPoint x="-1256" y="628" as="targetPoint" />
          </mxGeometry>
        </mxCell>
        <mxCell id="qQRVSBOoOYFu80DwUX75-24" value="1/s" style="whiteSpace=wrap;html=1;" parent="1" vertex="1">
          <mxGeometry x="-1316" y="613" width="30" height="30" as="geometry" />
        </mxCell>
        <mxCell id="qQRVSBOoOYFu80DwUX75-63" style="edgeStyle=orthogonalEdgeStyle;rounded=0;orthogonalLoop=1;jettySize=auto;html=1;exitX=1;exitY=0.5;exitDx=0;exitDy=0;entryX=0;entryY=0.5;entryDx=0;entryDy=0;endArrow=none;endFill=0;" parent="1" source="qQRVSBOoOYFu80DwUX75-25" target="qQRVSBOoOYFu80DwUX75-59" edge="1">
          <mxGeometry relative="1" as="geometry" />
        </mxCell>
        <mxCell id="qQRVSBOoOYFu80DwUX75-25" value="1/s" style="whiteSpace=wrap;html=1;" parent="1" vertex="1">
          <mxGeometry x="-946" y="682.5" width="30" height="30" as="geometry" />
        </mxCell>
        <mxCell id="qQRVSBOoOYFu80DwUX75-30" style="edgeStyle=orthogonalEdgeStyle;rounded=0;orthogonalLoop=1;jettySize=auto;html=1;exitX=1;exitY=0.5;exitDx=0;exitDy=0;entryX=0;entryY=0.5;entryDx=0;entryDy=0;" parent="1" source="qQRVSBOoOYFu80DwUX75-29" target="qQRVSBOoOYFu80DwUX75-20" edge="1">
          <mxGeometry relative="1" as="geometry" />
        </mxCell>
        <mxCell id="qQRVSBOoOYFu80DwUX75-29" value="" style="shape=sumEllipse;perimeter=ellipsePerimeter;whiteSpace=wrap;html=1;backgroundOutline=1;" parent="1" vertex="1">
          <mxGeometry x="-1436" y="618" width="20" height="20" as="geometry" />
        </mxCell>
        <mxCell id="qQRVSBOoOYFu80DwUX75-38" style="edgeStyle=orthogonalEdgeStyle;rounded=0;orthogonalLoop=1;jettySize=auto;html=1;exitX=1;exitY=0.5;exitDx=0;exitDy=0;entryX=0.5;entryY=0;entryDx=0;entryDy=0;" parent="1" source="qQRVSBOoOYFu80DwUX75-35" target="qQRVSBOoOYFu80DwUX75-6" edge="1">
          <mxGeometry relative="1" as="geometry">
            <mxPoint x="-1266" y="600" as="targetPoint" />
            <Array as="points">
              <mxPoint x="-1256" y="724" />
              <mxPoint x="-1256" y="590" />
              <mxPoint x="-1536" y="590" />
            </Array>
          </mxGeometry>
        </mxCell>
        <mxCell id="qQRVSBOoOYFu80DwUX75-35" value="1/s" style="whiteSpace=wrap;html=1;" parent="1" vertex="1">
          <mxGeometry x="-1316" y="709" width="30" height="30" as="geometry" />
        </mxCell>
        <mxCell id="qQRVSBOoOYFu80DwUX75-48" value="" style="edgeStyle=orthogonalEdgeStyle;rounded=0;orthogonalLoop=1;jettySize=auto;html=1;exitX=1;exitY=0.5;exitDx=0;exitDy=0;entryX=0;entryY=0.5;entryDx=0;entryDy=0;endArrow=none;endFill=0;" parent="1" source="qQRVSBOoOYFu80DwUX75-11" target="qQRVSBOoOYFu80DwUX75-47" edge="1">
          <mxGeometry relative="1" as="geometry">
            <mxPoint x="-993" y="698" as="sourcePoint" />
            <mxPoint x="-956" y="698" as="targetPoint" />
          </mxGeometry>
        </mxCell>
        <mxCell id="qQRVSBOoOYFu80DwUX75-49" style="edgeStyle=orthogonalEdgeStyle;rounded=0;orthogonalLoop=1;jettySize=auto;html=1;exitX=0.5;exitY=1;exitDx=0;exitDy=0;endArrow=none;endFill=0;entryX=0;entryY=0.5;entryDx=0;entryDy=0;" parent="1" edge="1">
          <mxGeometry relative="1" as="geometry">
            <mxPoint x="-1362.5" y="672.5" as="targetPoint" />
            <mxPoint x="-972" y="700" as="sourcePoint" />
            <Array as="points">
              <mxPoint x="-972" y="820" />
              <mxPoint x="-1495" y="820" />
              <mxPoint x="-1495" y="673" />
            </Array>
          </mxGeometry>
        </mxCell>
        <mxCell id="qQRVSBOoOYFu80DwUX75-85" value="ω&#39;" style="edgeLabel;html=1;align=center;verticalAlign=middle;resizable=0;points=[];fontSize=12;" parent="qQRVSBOoOYFu80DwUX75-49" vertex="1" connectable="0">
          <mxGeometry x="-0.1842" y="-2" relative="1" as="geometry">
            <mxPoint x="-5" y="-7" as="offset" />
          </mxGeometry>
        </mxCell>
        <mxCell id="qQRVSBOoOYFu80DwUX75-47" value="" style="ellipse;whiteSpace=wrap;html=1;aspect=fixed;fillColor=#000000;" parent="1" vertex="1">
          <mxGeometry x="-975.5" y="695" width="5" height="5" as="geometry" />
        </mxCell>
        <mxCell id="qQRVSBOoOYFu80DwUX75-52" value="" style="edgeStyle=orthogonalEdgeStyle;rounded=0;orthogonalLoop=1;jettySize=auto;html=1;exitX=0.5;exitY=0;exitDx=0;exitDy=0;entryX=0.5;entryY=1;entryDx=0;entryDy=0;startArrow=classic;startFill=1;endArrow=none;endFill=0;" parent="1" source="qQRVSBOoOYFu80DwUX75-21" target="qQRVSBOoOYFu80DwUX75-51" edge="1">
          <mxGeometry relative="1" as="geometry">
            <mxPoint x="-1361" y="709" as="sourcePoint" />
            <mxPoint x="-1361" y="643" as="targetPoint" />
          </mxGeometry>
        </mxCell>
        <mxCell id="qQRVSBOoOYFu80DwUX75-51" value="" style="ellipse;whiteSpace=wrap;html=1;aspect=fixed;fillColor=#000000;" parent="1" vertex="1">
          <mxGeometry x="-1363.5" y="670" width="5" height="5" as="geometry" />
        </mxCell>
        <mxCell id="qQRVSBOoOYFu80DwUX75-55" style="edgeStyle=orthogonalEdgeStyle;rounded=0;orthogonalLoop=1;jettySize=auto;html=1;exitX=0.5;exitY=0;exitDx=0;exitDy=0;entryX=0.5;entryY=1;entryDx=0;entryDy=0;" parent="1" source="qQRVSBOoOYFu80DwUX75-53" target="qQRVSBOoOYFu80DwUX75-29" edge="1">
          <mxGeometry relative="1" as="geometry" />
        </mxCell>
        <mxCell id="qQRVSBOoOYFu80DwUX75-57" style="edgeStyle=orthogonalEdgeStyle;rounded=0;orthogonalLoop=1;jettySize=auto;html=1;exitX=1;exitY=0.5;exitDx=0;exitDy=0;entryX=0;entryY=0.5;entryDx=0;entryDy=0;endArrow=none;endFill=0;" parent="1" source="qQRVSBOoOYFu80DwUX75-53" target="qQRVSBOoOYFu80DwUX75-21" edge="1">
          <mxGeometry relative="1" as="geometry" />
        </mxCell>
        <mxCell id="qQRVSBOoOYFu80DwUX75-53" value="" style="ellipse;whiteSpace=wrap;html=1;aspect=fixed;fillColor=#000000;" parent="1" vertex="1">
          <mxGeometry x="-1428.5" y="721" width="5" height="5" as="geometry" />
        </mxCell>
        <mxCell id="qQRVSBOoOYFu80DwUX75-58" style="edgeStyle=orthogonalEdgeStyle;rounded=0;orthogonalLoop=1;jettySize=auto;html=1;exitX=0.5;exitY=1;exitDx=0;exitDy=0;entryX=0.006;entryY=0.827;entryDx=0;entryDy=0;entryPerimeter=0;" parent="1" source="qQRVSBOoOYFu80DwUX75-53" target="qQRVSBOoOYFu80DwUX75-10" edge="1">
          <mxGeometry relative="1" as="geometry">
            <Array as="points">
              <mxPoint x="-1426" y="770" />
              <mxPoint x="-1239" y="770" />
              <mxPoint x="-1239" y="716" />
            </Array>
          </mxGeometry>
        </mxCell>
        <mxCell id="qQRVSBOoOYFu80DwUX75-88" value="Vβ" style="edgeLabel;html=1;align=center;verticalAlign=middle;resizable=0;points=[];labelBackgroundColor=none;" parent="qQRVSBOoOYFu80DwUX75-58" vertex="1" connectable="0">
          <mxGeometry x="0.8607" relative="1" as="geometry">
            <mxPoint x="6" y="10" as="offset" />
          </mxGeometry>
        </mxCell>
        <mxCell id="qQRVSBOoOYFu80DwUX75-64" style="edgeStyle=orthogonalEdgeStyle;rounded=0;orthogonalLoop=1;jettySize=auto;html=1;exitX=1;exitY=0.5;exitDx=0;exitDy=0;" parent="1" source="qQRVSBOoOYFu80DwUX75-59" edge="1">
          <mxGeometry relative="1" as="geometry">
            <mxPoint x="-876" y="697.5555555555555" as="targetPoint" />
          </mxGeometry>
        </mxCell>
        <mxCell id="qQRVSBOoOYFu80DwUX75-65" value="θ" style="edgeLabel;html=1;align=center;verticalAlign=middle;resizable=0;points=[];labelBackgroundColor=none;fontStyle=1;fontSize=14;" parent="qQRVSBOoOYFu80DwUX75-64" vertex="1" connectable="0">
          <mxGeometry x="0.8098" y="-1" relative="1" as="geometry">
            <mxPoint x="13" y="-1" as="offset" />
          </mxGeometry>
        </mxCell>
        <mxCell id="qQRVSBOoOYFu80DwUX75-66" style="edgeStyle=orthogonalEdgeStyle;rounded=0;orthogonalLoop=1;jettySize=auto;html=1;entryX=0.5;entryY=0;entryDx=0;entryDy=0;" parent="1" source="qQRVSBOoOYFu80DwUX75-59" target="qQRVSBOoOYFu80DwUX75-10" edge="1">
          <mxGeometry relative="1" as="geometry">
            <mxPoint x="-898.5" y="670.0000000000001" as="targetPoint" />
            <Array as="points">
              <mxPoint x="-898" y="630" />
              <mxPoint x="-1173" y="630" />
            </Array>
          </mxGeometry>
        </mxCell>
        <mxCell id="qQRVSBOoOYFu80DwUX75-68" value="θ&#39;" style="edgeLabel;html=1;align=center;verticalAlign=middle;resizable=0;points=[];labelBackgroundColor=none;fontSize=12;" parent="qQRVSBOoOYFu80DwUX75-66" vertex="1" connectable="0">
          <mxGeometry x="-0.2279" y="1" relative="1" as="geometry">
            <mxPoint x="-46" y="-9" as="offset" />
          </mxGeometry>
        </mxCell>
        <mxCell id="qQRVSBOoOYFu80DwUX75-59" value="" style="ellipse;whiteSpace=wrap;html=1;aspect=fixed;fillColor=#000000;" parent="1" vertex="1">
          <mxGeometry x="-901" y="695" width="5" height="5" as="geometry" />
        </mxCell>
        <mxCell id="qQRVSBOoOYFu80DwUX75-69" value="+" style="text;html=1;align=center;verticalAlign=middle;whiteSpace=wrap;rounded=0;fontStyle=1" parent="1" vertex="1">
          <mxGeometry x="-1561" y="632.5" width="20" height="17.75" as="geometry" />
        </mxCell>
        <mxCell id="qQRVSBOoOYFu80DwUX75-70" value="-" style="text;html=1;align=center;verticalAlign=middle;whiteSpace=wrap;rounded=0;fontStyle=1" parent="1" vertex="1">
          <mxGeometry x="-1556" y="600.25" width="20" height="17.75" as="geometry" />
        </mxCell>
        <mxCell id="qQRVSBOoOYFu80DwUX75-71" value="+" style="text;html=1;align=center;verticalAlign=middle;whiteSpace=wrap;rounded=0;fontStyle=1" parent="1" vertex="1">
          <mxGeometry x="-1456" y="603.75" width="20" height="17.75" as="geometry" />
        </mxCell>
        <mxCell id="qQRVSBOoOYFu80DwUX75-72" value="-" style="text;html=1;align=center;verticalAlign=middle;whiteSpace=wrap;rounded=0;fontStyle=1" parent="1" vertex="1">
          <mxGeometry x="-1448.5" y="635" width="20" height="17.75" as="geometry" />
        </mxCell>
        <mxCell id="qQRVSBOoOYFu80DwUX75-73" value="+" style="text;html=1;align=center;verticalAlign=middle;whiteSpace=wrap;rounded=0;fontStyle=1" parent="1" vertex="1">
          <mxGeometry x="-1033" y="677.25" width="20" height="17.75" as="geometry" />
        </mxCell>
        <mxCell id="qQRVSBOoOYFu80DwUX75-74" value="+" style="text;html=1;align=center;verticalAlign=middle;whiteSpace=wrap;rounded=0;fontStyle=1" parent="1" vertex="1">
          <mxGeometry x="-1026" y="704.5" width="20" height="17.75" as="geometry" />
        </mxCell>
        <mxCell id="qQRVSBOoOYFu80DwUX75-80" value="SOGI - QSG" style="text;html=1;align=center;verticalAlign=middle;whiteSpace=wrap;rounded=0;fontStyle=1" parent="1" vertex="1">
          <mxGeometry x="-1606" y="772.25" width="70" height="17.75" as="geometry" />
        </mxCell>
        <mxCell id="qQRVSBOoOYFu80DwUX75-81" value="SRF PLL" style="text;html=1;align=center;verticalAlign=middle;whiteSpace=wrap;rounded=0;fontStyle=1" parent="1" vertex="1">
          <mxGeometry x="-1203" y="772.25" width="70" height="17.75" as="geometry" />
        </mxCell>
        <mxCell id="qQRVSBOoOYFu80DwUX75-82" value="SOGI" style="text;html=1;align=center;verticalAlign=middle;whiteSpace=wrap;rounded=0;fontStyle=1" parent="1" vertex="1">
          <mxGeometry x="-1423.5" y="772.25" width="70" height="17.75" as="geometry" />
        </mxCell>
      </root>
    </mxGraphModel>
  </diagram>
</mxfile>
